# Blender v2.93.1 OBJ File: 'tiles_zordoom.blend'
# www.blender.org
mtllib tiles_floor_edge.mtl
o Floor_Edge_Cube.003
v -1.200000 1.000000 -1.000000
v -1.200000 -1.000000 -1.000000
v -1.200000 1.000000 1.000000
v -1.200000 -1.000000 1.000000
v -3.200000 1.000000 -1.000000
v -3.200000 -1.000000 -1.000000
v -3.200000 1.000000 1.000000
v -3.200000 -1.000000 1.000000
v -3.200000 -1.000000 0.000000
v -2.200000 -1.000000 -1.000000
v -1.200000 0.000000 -1.000000
v -3.200000 0.000000 1.000000
v -1.200000 0.000000 1.000000
v -3.200000 0.000000 -1.000000
v -2.200000 1.000000 1.000000
v -1.200000 1.000000 0.000000
v -2.200000 -1.000000 1.000000
v -3.200000 1.000000 0.000000
v -2.200000 1.000000 -1.000000
v -1.200000 -1.000000 0.000000
v -2.200000 0.000000 -1.000000
v -1.200000 0.000000 0.000000
v -2.200000 -1.000000 0.000000
v -3.200000 0.000000 0.000000
v -2.200000 0.000000 1.000000
v -2.200000 1.000000 0.000000
v -3.200000 0.800000 1.000000
v -1.200000 0.800000 -1.000000
v -1.200000 0.800000 1.000000
v -3.200000 0.800000 -1.000000
v -2.200000 0.800000 -1.000000
v -1.200000 0.800000 0.000000
v -3.200000 0.800000 0.000000
v -2.200000 0.800000 1.000000
v -3.000000 -1.000000 -1.000000
v -3.000000 1.000000 1.000000
v -3.000000 -1.000000 1.000000
v -3.000000 1.000000 -1.000000
v -3.000000 0.000000 -1.000000
v -3.000000 -1.000000 0.000000
v -3.000000 0.000000 1.000000
v -3.000000 1.000000 0.000000
v -3.000000 0.800000 -1.000000
v -3.000000 0.800000 1.000000
v -3.000000 3.000000 1.000000
v -3.200000 3.000000 1.000000
v -3.200000 3.000000 0.000000
v -3.200000 3.000000 -1.000000
v -3.000000 3.000000 -1.000000
v -3.000000 3.000000 0.000000
vt 0.218748 0.363960
vt 0.218748 0.436171
vt 0.147915 0.436171
vt 0.147915 0.363960
vt 0.562500 0.125000
vt 0.625000 0.125000
vt 0.625000 0.250000
vt 0.562500 0.250000
vt 0.562500 0.625000
vt 0.625000 0.625000
vt 0.625000 0.750000
vt 0.562500 0.750000
vt 0.500000 1.110322
vt 0.500000 1.010341
vt 0.999909 1.010341
vt 0.999909 1.110322
vt 0.100073 1.110322
vt 0.100073 1.010340
vt 0.562500 0.500000
vt 0.625000 0.500000
vt 0.562500 0.000000
vt 0.625000 0.000000
vt 0.868643 0.363960
vt 0.868643 0.436171
vt 0.508968 0.436171
vt 0.508968 0.363960
vt -1.537013 -1.009785
vt -3.567100 -1.009785
vt -3.567100 -3.039873
vt -1.537013 -3.039873
vt -1.537013 1.020302
vt -3.567100 1.020302
vt -5.191170 1.020302
vt -5.191170 -1.009785
vt 0.000091 1.110322
vt 0.000091 1.010340
vt -5.191170 -3.039873
vt 0.250000 0.625000
vt 0.375000 0.625000
vt 0.375000 0.750000
vt 0.250000 0.750000
vt 0.375000 0.375000
vt 0.500000 0.375000
vt 0.500000 0.500000
vt 0.375000 0.500000
vt 0.375000 0.275000
vt 0.500000 0.275000
vt 0.500000 0.625000
vt 0.500000 0.750000
vt 0.150000 0.625000
vt 0.150000 0.750000
vt 0.150000 0.500000
vt 0.250000 0.500000
vt 0.375000 0.125000
vt 0.500000 0.125000
vt 0.500000 0.250000
vt 0.375000 0.250000
vt 0.375000 0.000000
vt 0.500000 0.000000
vt 0.375000 0.975000
vt 0.500000 0.975000
vt 0.500000 1.000000
vt 0.375000 1.000000
vt 0.500000 0.875000
vt 0.375000 0.875000
vt 0.562500 0.875000
vt 0.562500 0.275000
vt 0.562500 0.375000
vt 0.562500 0.975000
vt 0.562500 1.000000
vt 0.125000 0.500000
vt 0.125000 0.625000
vt 0.125000 0.750000
vt 0.000091 1.010340
vt 0.100073 1.010340
vt 0.625000 0.125000
vt 0.625000 0.250000
vt 0.100073 0.510432
vt 0.000091 0.510432
vt 0.000091 0.010523
vt 0.100073 0.010523
vt 0.500000 0.000100
vt 0.999900 0.000100
vt 0.999900 0.999900
vt 0.500000 0.999900
vt 0.625000 0.000000
vt 0.000100 0.000100
vt 0.000100 0.999900
vt 0.000091 0.010523
vt 0.100073 0.010523
vn 0.0000 0.0000 1.0000
vn -1.0000 0.0000 0.0000
vn 1.0000 0.0000 0.0000
vn 0.0000 0.0000 -1.0000
vn 0.0000 1.0000 0.0000
vn 0.0000 -1.0000 0.0000
usemtl bm_interior
s off
f 44/1/1 36/2/1 7/3/1 27/4/1
f 33/5/2 18/6/2 5/7/2 30/8/2
f 32/9/3 16/10/3 3/11/3 29/12/3
f 31/13/4 19/14/4 1/15/4 28/16/4
f 43/17/4 38/18/4 19/14/4 31/13/4
f 28/19/3 1/20/3 16/10/3 32/9/3
f 27/21/2 7/22/2 18/6/2 33/5/2
f 29/23/1 3/24/1 15/25/1 34/26/1
f 16/27/5 26/28/5 15/29/5 3/30/5
f 1/31/5 19/32/5 26/28/5 16/27/5
f 19/32/5 38/33/5 42/34/5 26/28/5
f 30/35/4 5/36/4 38/18/4 43/17/4
f 34/26/1 15/25/1 36/2/1 44/1/1
f 26/28/5 42/34/5 36/37/5 15/29/5
usemtl Concrete
f 23/38/6 20/39/6 4/40/6 17/41/6
f 10/42/4 21/43/4 11/44/4 2/45/4
f 35/46/4 39/47/4 21/43/4 10/42/4
f 20/39/3 22/48/3 13/49/3 4/40/3
f 2/45/3 11/44/3 22/48/3 20/39/3
f 40/50/6 23/38/6 17/41/6 37/51/6
f 35/52/6 10/53/6 23/38/6 40/50/6
f 10/53/6 2/45/6 20/39/6 23/38/6
f 9/54/2 24/55/2 14/56/2 6/57/2
f 8/58/2 12/59/2 24/55/2 9/54/2
f 37/60/1 41/61/1 12/62/1 8/63/1
f 4/40/1 13/49/1 25/64/1 17/65/1
f 13/49/1 29/12/1 34/66/1 25/64/1
f 12/59/2 27/21/2 33/5/2 24/55/2
f 11/44/3 28/19/3 32/9/3 22/48/3
f 39/47/4 43/67/4 31/68/4 21/43/4
f 21/43/4 31/68/4 28/19/4 11/44/4
f 22/48/3 32/9/3 29/12/3 13/49/3
f 24/55/2 33/5/2 30/8/2 14/56/2
f 41/61/1 44/69/1 27/70/1 12/62/1
f 25/64/1 34/66/1 44/69/1 41/61/1
f 14/56/4 30/8/4 43/67/4 39/47/4
f 17/65/1 25/64/1 41/61/1 37/60/1
f 6/71/6 35/52/6 40/50/6 9/72/6
f 9/72/6 40/50/6 37/51/6 8/73/6
f 6/57/4 14/56/4 39/47/4 35/46/4
usemtl CremePlastic
f 38/18/4 5/36/4 48/74/4 49/75/4
f 5/7/2 18/6/2 47/76/2 48/77/2
f 50/78/5 47/79/5 46/80/5 45/81/5
f 49/75/5 48/74/5 47/79/5 50/78/5
f 42/82/3 38/83/3 49/84/3 50/85/3
f 18/6/2 7/22/2 46/86/2 47/76/2
f 36/87/3 42/82/3 50/85/3 45/88/3
f 7/89/1 36/90/1 45/81/1 46/80/1
