# Blender v2.93.1 OBJ File: 'tiles_zordoom.blend'
# www.blender.org
mtllib tiles_wall.mtl
o Wall_Cube.016
v -1.000000 3.200000 -3.200000
v -0.000000 3.200000 -3.200000
v -0.000000 3.200000 -3.000000
v 1.000000 3.200000 -3.200000
v -1.000000 3.200000 -3.000000
v 1.000000 3.200000 -3.000000
v -1.000000 5.200000 -3.200000
v 1.000000 5.200000 -3.200000
v -0.000000 5.200000 -3.200000
v 1.000000 5.200000 -3.000000
v -0.000000 5.200000 -3.000000
v -1.000000 5.200000 -3.000000
vt 0.100073 0.510432
vt 0.100073 0.510432
vt 0.100073 0.010523
vt 0.100073 0.010523
vt 0.625000 0.000000
vt 0.625000 0.125000
vt 0.625000 0.125000
vt 0.625000 0.000000
vt 0.625000 0.225000
vt 0.625000 0.225000
vt 0.000091 0.510432
vt 0.000091 0.010523
vt 0.100073 0.910359
vt 0.000091 0.910359
vt 0.625000 0.000000
vt 0.625000 0.125000
vt 0.625000 0.225000
vt 0.100073 0.910359
vt 0.000091 0.010523
vn 0.0000 0.0000 1.0000
vn 0.0000 -1.0000 0.0000
vn 0.0000 1.0000 0.0000
vn 0.0000 0.0000 -1.0000
vn -1.0000 0.0000 0.0000
usemtl CremePlastic
s off
f 3/1/1 11/2/1 12/3/1 5/4/1
f 1/5/2 2/6/2 3/7/2 5/8/2
f 2/6/2 4/9/2 6/10/2 3/7/2
f 11/2/3 9/11/3 7/12/3 12/3/3
f 10/13/3 8/14/3 9/11/3 11/2/3
f 2/6/4 1/5/4 7/15/4 9/16/4
f 4/9/4 2/6/4 9/16/4 8/17/4
f 6/18/1 10/13/1 11/2/1 3/1/1
f 1/19/5 5/4/5 12/3/5 7/12/5
