# Blender v2.93.1 OBJ File: 'tiles_zordoom.blend'
# www.blender.org
mtllib tiles_floor.mtl
o Floor_Base_Cube.002
v 1.000000 1.000000 -1.000000
v 1.000000 -1.000000 -1.000000
v 1.000000 1.000000 1.000000
v 1.000000 -1.000000 1.000000
v -1.000000 1.000000 -1.000000
v -1.000000 -1.000000 -1.000000
v -1.000000 1.000000 1.000000
v -1.000000 -1.000000 1.000000
v -1.000000 -1.000000 0.000000
v 0.000000 -1.000000 -1.000000
v 1.000000 0.000000 -1.000000
v -1.000000 0.000000 1.000000
v 1.000000 0.000000 1.000000
v -1.000000 0.000000 -1.000000
v 0.000000 1.000000 1.000000
v 1.000000 1.000000 0.000000
v 0.000000 -1.000000 1.000000
v -1.000000 1.000000 0.000000
v 0.000000 1.000000 -1.000000
v 1.000000 -1.000000 0.000000
v 0.000000 0.000000 -1.000000
v 1.000000 0.000000 0.000000
v 0.000000 -1.000000 0.000000
v -1.000000 0.000000 0.000000
v 0.000000 0.000000 1.000000
v 0.000000 1.000000 0.000000
v -1.000000 0.800000 1.000000
v 1.000000 0.800000 -1.000000
v 1.000000 0.800000 1.000000
v -1.000000 0.800000 -1.000000
v 0.000000 0.800000 -1.000000
v 1.000000 0.800000 0.000000
v -1.000000 0.800000 0.000000
v 0.000000 0.800000 1.000000
vt 0.497605 -1.009785
vt -1.532482 -1.009785
vt -1.532482 -3.039873
vt 0.497605 -3.039873
vt 0.508968 0.363960
vt 0.508968 0.436171
vt 0.147915 0.436171
vt 0.147915 0.363960
vt 0.562500 0.125000
vt 0.625000 0.125000
vt 0.625000 0.250000
vt 0.562500 0.250000
vt 0.562500 0.625000
vt 0.625000 0.625000
vt 0.625000 0.750000
vt 0.562500 0.750000
vt 0.500000 1.110322
vt 0.500000 1.010341
vt 0.999909 1.010341
vt 0.999909 1.110322
vt 0.000091 1.110322
vt 0.000091 1.010340
vt 0.562500 0.500000
vt 0.625000 0.500000
vt 0.562500 0.000000
vt 0.625000 0.000000
vt 0.868643 0.363960
vt 0.868643 0.436171
vt 2.527694 -1.009785
vt 2.527694 -3.039873
vt 2.527694 1.020302
vt 0.497605 1.020302
vt -1.532482 1.020302
vt 0.250000 0.625000
vt 0.375000 0.625000
vt 0.375000 0.750000
vt 0.250000 0.750000
vt 0.375000 0.375000
vt 0.500000 0.375000
vt 0.500000 0.500000
vt 0.375000 0.500000
vt 0.375000 0.250000
vt 0.500000 0.250000
vt 0.500000 0.625000
vt 0.500000 0.750000
vt 0.125000 0.625000
vt 0.125000 0.750000
vt 0.125000 0.500000
vt 0.250000 0.500000
vt 0.375000 0.125000
vt 0.500000 0.125000
vt 0.375000 0.000000
vt 0.500000 0.000000
vt 0.375000 0.875000
vt 0.500000 0.875000
vt 0.500000 1.000000
vt 0.375000 1.000000
vt 0.562500 0.875000
vt 0.562500 0.375000
vt 0.562500 1.000000
vn 0.0000 1.0000 0.0000
vn 0.0000 0.0000 1.0000
vn -1.0000 0.0000 0.0000
vn 1.0000 0.0000 0.0000
vn 0.0000 0.0000 -1.0000
vn 0.0000 -1.0000 0.0000
usemtl bm_interior
s off
f 26/1/1 18/2/1 7/3/1 15/4/1
f 34/5/2 15/6/2 7/7/2 27/8/2
f 33/9/3 18/10/3 5/11/3 30/12/3
f 32/13/4 16/14/4 3/15/4 29/16/4
f 31/17/5 19/18/5 1/19/5 28/20/5
f 30/21/5 5/22/5 19/18/5 31/17/5
f 28/23/4 1/24/4 16/14/4 32/13/4
f 27/25/3 7/26/3 18/10/3 33/9/3
f 29/27/2 3/28/2 15/6/2 34/5/2
f 16/29/1 26/1/1 15/4/1 3/30/1
f 1/31/1 19/32/1 26/1/1 16/29/1
f 19/32/1 5/33/1 18/2/1 26/1/1
usemtl Concrete
f 23/34/6 20/35/6 4/36/6 17/37/6
f 10/38/5 21/39/5 11/40/5 2/41/5
f 6/42/5 14/43/5 21/39/5 10/38/5
f 20/35/4 22/44/4 13/45/4 4/36/4
f 2/41/4 11/40/4 22/44/4 20/35/4
f 9/46/6 23/34/6 17/37/6 8/47/6
f 6/48/6 10/49/6 23/34/6 9/46/6
f 10/49/6 2/41/6 20/35/6 23/34/6
f 9/50/3 24/51/3 14/43/3 6/42/3
f 8/52/3 12/53/3 24/51/3 9/50/3
f 17/54/2 25/55/2 12/56/2 8/57/2
f 4/36/2 13/45/2 25/55/2 17/54/2
f 13/45/2 29/16/2 34/58/2 25/55/2
f 12/53/3 27/25/3 33/9/3 24/51/3
f 11/40/4 28/23/4 32/13/4 22/44/4
f 14/43/5 30/12/5 31/59/5 21/39/5
f 21/39/5 31/59/5 28/23/5 11/40/5
f 22/44/4 32/13/4 29/16/4 13/45/4
f 24/51/3 33/9/3 30/12/3 14/43/3
f 25/55/2 34/58/2 27/60/2 12/56/2
