# Blender v2.93.1 OBJ File: 'tiles_zordoom.blend'
# www.blender.org
mtllib tiles_floor_corner.mtl
o Floor_Corner_Cube.007
v -1.200000 1.000000 -3.200000
v -1.200000 -1.000000 -3.200000
v -1.200000 1.000000 -1.200000
v -1.200000 -1.000000 -1.200000
v -3.200000 1.000000 -3.200000
v -3.200000 -1.000000 -3.200000
v -3.200000 1.000000 -1.200000
v -3.200000 -1.000000 -1.200000
v -3.200000 -1.000000 -2.200000
v -2.200000 -1.000000 -3.200000
v -1.200000 0.000000 -3.200000
v -3.200000 0.000000 -1.200000
v -1.200000 0.000000 -1.200000
v -3.200000 0.000000 -3.200000
v -2.200000 1.000000 -1.200000
v -1.200000 1.000000 -2.200000
v -2.200000 -1.000000 -1.200000
v -3.200000 1.000000 -2.200000
v -2.200000 1.000000 -3.200000
v -1.200000 -1.000000 -2.200000
v -2.200000 0.000000 -3.200000
v -1.200000 0.000000 -2.200000
v -2.200000 -1.000000 -2.200000
v -3.200000 0.000000 -2.200000
v -2.200000 0.000000 -1.200000
v -2.200000 1.000000 -2.200000
v -3.200000 0.800000 -1.200000
v -1.200000 0.800000 -3.200000
v -1.200000 0.800000 -1.200000
v -3.200000 0.800000 -3.200000
v -2.200000 0.800000 -3.200000
v -1.200000 0.800000 -2.200000
v -3.200000 0.800000 -2.200000
v -2.200000 0.800000 -1.200000
v -3.000000 -1.000000 -3.200000
v -3.000000 1.000000 -1.200000
v -3.000000 -1.000000 -1.200000
v -3.000000 1.000000 -3.200000
v -3.000000 0.000000 -3.200000
v -3.000000 -1.000000 -2.200000
v -3.000000 0.000000 -1.200000
v -3.000000 1.000000 -2.200000
v -3.000000 0.800000 -3.200000
v -3.000000 0.800000 -1.200000
v -3.200000 1.000000 -3.000000
v -1.200000 -1.000000 -3.000000
v -3.200000 -1.000000 -3.000000
v -1.200000 1.000000 -3.000000
v -1.200000 0.000000 -3.000000
v -2.200000 -1.000000 -3.000000
v -3.200000 0.000000 -3.000000
v -2.200000 1.000000 -3.000000
v -1.200000 0.800000 -3.000000
v -3.200000 0.800000 -3.000000
v -3.000000 1.000000 -3.000000
v -3.000000 -1.000000 -3.000000
v -3.000000 3.000000 -1.200000
v -3.200000 3.000000 -1.200000
v -3.200000 3.000000 -3.000000
v -3.200000 3.000000 -3.200000
v -2.200000 3.000000 -3.200000
v -1.200000 3.000000 -3.200000
v -3.200000 3.000000 -2.200000
v -3.000000 3.000000 -3.200000
v -3.000000 3.000000 -2.200000
v -3.000000 3.000000 -3.000000
v -1.200000 3.000000 -3.000000
v -2.200000 3.000000 -3.000000
vt 0.100073 -0.089459
vt 0.100073 0.010523
vt 0.000091 0.010523
vt 0.000091 -0.089459
vt 0.562500 0.225000
vt 0.625000 0.225000
vt 0.625000 0.250000
vt 0.562500 0.250000
vt 0.562500 0.625000
vt 0.625000 0.625000
vt 0.625000 0.750000
vt 0.562500 0.750000
vt 0.508968 0.363960
vt 0.508968 0.436171
vt 0.147915 0.436171
vt 0.147915 0.363960
vt 0.797849 0.363960
vt 0.797849 0.436171
vt 0.562500 0.525000
vt 0.625000 0.525000
vt 0.562500 0.000000
vt 0.625000 0.000000
vt 0.625000 0.125000
vt 0.562500 0.125000
vt 0.999909 -0.089459
vt 0.999909 0.010523
vt 0.500000 0.010523
vt 0.500000 -0.089459
vt -1.537013 3.054919
vt -3.567100 3.054919
vt -3.567100 1.024832
vt -1.537013 1.024832
vt -1.537013 4.678989
vt -3.567100 4.678989
vt -5.191170 4.678989
vt -5.191170 3.054919
vt 0.868643 0.363960
vt 0.868643 0.436171
vt -5.191170 1.024832
vt 0.562500 0.500000
vt 0.625000 0.500000
vt 0.250000 0.625000
vt 0.375000 0.625000
vt 0.375000 0.750000
vt 0.250000 0.750000
vt 0.375000 0.375000
vt 0.500000 0.375000
vt 0.500000 0.500000
vt 0.375000 0.500000
vt 0.375000 0.275000
vt 0.500000 0.275000
vt 0.500000 0.625000
vt 0.500000 0.750000
vt 0.375000 0.525000
vt 0.500000 0.525000
vt 0.150000 0.625000
vt 0.150000 0.750000
vt 0.150000 0.525000
vt 0.250000 0.525000
vt 0.375000 0.225000
vt 0.500000 0.225000
vt 0.500000 0.250000
vt 0.375000 0.250000
vt 0.375000 0.000000
vt 0.500000 0.000000
vt 0.500000 0.125000
vt 0.375000 0.125000
vt 0.375000 0.975000
vt 0.500000 0.975000
vt 0.500000 1.000000
vt 0.375000 1.000000
vt 0.500000 0.875000
vt 0.375000 0.875000
vt 0.562500 0.875000
vt 0.562500 0.275000
vt 0.562500 0.375000
vt 0.562500 0.975000
vt 0.562500 1.000000
vt 0.125000 0.525000
vt 0.125000 0.625000
vt 0.125000 0.750000
vt 0.125000 0.500000
vt 0.150000 0.500000
vt 0.250000 0.500000
vt 0.100073 0.910359
vt 0.500000 0.910359
vt 0.500000 0.910359
vt 0.100073 0.910359
vt 0.500000 1.010341
vt 0.100073 1.010340
vt 0.100073 1.010340
vt 0.500000 1.010341
vt 0.100073 0.510432
vt 0.100073 0.510432
vt 0.100073 0.010523
vt 0.625000 0.000000
vt 0.625000 0.125000
vt 0.000091 0.510432
vt 0.000091 0.010523
vt 0.000091 0.910359
vt 0.000091 1.010340
vt 0.999909 1.010341
vt 0.999909 0.910359
vt 0.625000 0.500000
vt 0.625000 0.525000
vt 0.625000 0.225000
vt 0.625000 0.250000
vt 0.999909 0.910359
vt 0.000091 1.010340
vt 0.999909 1.010341
vn 0.0000 0.0000 1.0000
vn -1.0000 0.0000 0.0000
vn 1.0000 0.0000 0.0000
vn 0.0000 0.0000 -1.0000
vn 0.0000 1.0000 0.0000
vn 0.0000 -1.0000 0.0000
usemtl bm_interior
s off
f 44/1/1 36/2/1 7/3/1 27/4/1
f 54/5/2 45/6/2 5/7/2 30/8/2
f 32/9/3 16/10/3 3/11/3 29/12/3
f 31/13/4 19/14/4 1/15/4 28/16/4
f 43/17/4 38/18/4 19/14/4 31/13/4
f 53/19/3 48/20/3 16/10/3 32/9/3
f 27/21/2 7/22/2 18/23/2 33/24/2
f 29/25/1 3/26/1 15/27/1 34/28/1
f 16/29/5 26/30/5 15/31/5 3/32/5
f 48/33/5 52/34/5 26/30/5 16/29/5
f 52/34/5 55/35/5 42/36/5 26/30/5
f 30/37/4 5/38/4 38/18/4 43/17/4
f 34/28/1 15/27/1 36/2/1 44/1/1
f 26/30/5 42/36/5 36/39/5 15/31/5
f 28/40/3 1/41/3 48/20/3 53/19/3
f 33/24/2 18/23/2 45/6/2 54/5/2
usemtl Concrete
f 23/42/6 20/43/6 4/44/6 17/45/6
f 10/46/4 21/47/4 11/48/4 2/49/4
f 35/50/4 39/51/4 21/47/4 10/46/4
f 20/43/3 22/52/3 13/53/3 4/44/3
f 46/54/3 49/55/3 22/52/3 20/43/3
f 40/56/6 23/42/6 17/45/6 37/57/6
f 56/58/6 50/59/6 23/42/6 40/56/6
f 50/59/6 46/54/6 20/43/6 23/42/6
f 47/60/2 51/61/2 14/62/2 6/63/2
f 8/64/2 12/65/2 24/66/2 9/67/2
f 37/68/1 41/69/1 12/70/1 8/71/1
f 4/44/1 13/53/1 25/72/1 17/73/1
f 13/53/1 29/12/1 34/74/1 25/72/1
f 12/65/2 27/21/2 33/24/2 24/66/2
f 49/55/3 53/19/3 32/9/3 22/52/3
f 39/51/4 43/75/4 31/76/4 21/47/4
f 21/47/4 31/76/4 28/40/4 11/48/4
f 22/52/3 32/9/3 29/12/3 13/53/3
f 51/61/2 54/5/2 30/8/2 14/62/2
f 41/69/1 44/77/1 27/78/1 12/70/1
f 25/72/1 34/74/1 44/77/1 41/69/1
f 14/62/4 30/8/4 43/75/4 39/51/4
f 17/73/1 25/72/1 41/69/1 37/68/1
f 47/79/6 56/58/6 40/56/6 9/80/6
f 9/80/6 40/56/6 37/57/6 8/81/6
f 6/63/4 14/62/4 39/51/4 35/50/4
f 6/82/6 35/83/6 56/58/6 47/79/6
f 24/66/2 33/24/2 54/5/2 51/61/2
f 11/48/3 28/40/3 53/19/3 49/55/3
f 9/67/2 24/66/2 51/61/2 47/60/2
f 10/84/6 2/49/6 46/54/6 50/59/6
f 35/83/6 10/84/6 50/59/6 56/58/6
f 2/49/3 11/48/3 49/55/3 46/54/3
usemtl CremePlastic
f 55/85/1 52/86/1 68/87/1 66/88/1
f 19/89/4 38/90/4 64/91/4 61/92/4
f 36/2/3 42/93/3 65/94/3 57/95/3
f 42/93/3 55/85/3 66/88/3 65/94/3
f 18/23/2 7/22/2 58/96/2 63/97/2
f 65/94/5 63/98/5 58/99/5 57/95/5
f 66/88/5 59/100/5 63/98/5 65/94/5
f 61/92/5 64/91/5 66/88/5 68/87/5
f 64/91/5 60/101/5 59/100/5 66/88/5
f 62/102/5 61/92/5 68/87/5 67/103/5
f 48/20/3 1/41/3 62/104/3 67/105/3
f 5/7/2 45/6/2 59/106/2 60/107/2
f 52/86/1 48/108/1 67/103/1 68/87/1
f 38/90/4 5/109/4 60/101/4 64/91/4
f 45/6/2 18/23/2 63/97/2 59/106/2
f 7/3/1 36/2/1 57/95/1 58/99/1
f 1/110/4 19/89/4 61/92/4 62/102/4
