# Blender v2.93.1 OBJ File: 'tiles_zordoom.blend'
# www.blender.org
mtllib tiles_ceiling_wall.mtl
o Wall_Roof_Cube.009
v 1.000000 5.400000 -3.200000
v -1.000000 5.400000 -3.200000
v 0.000000 5.400000 -3.200000
v -1.000000 5.400000 -3.000000
v 1.000000 5.400000 -3.000000
v 0.000000 5.400000 -3.000000
v -1.000000 7.400000 -3.000000
v -1.000000 7.400000 -3.200000
v 0.000000 7.400000 -3.200000
v 1.000000 7.400000 -3.200000
v 1.000000 7.400000 -3.000000
v 0.000000 7.400000 -3.000000
v 1.000000 7.200000 -3.000000
v 0.000000 7.200000 -3.000000
v -1.000000 7.200000 -3.200000
v 0.000000 7.200000 -3.200000
v -1.000000 7.200000 -3.000000
v 1.000000 7.200000 -3.200000
v 1.000000 7.200000 -1.200000
v 1.000000 7.400000 -1.200000
v -1.000000 7.400000 -1.200000
v 0.000000 7.400000 -1.200000
v -1.000000 7.200000 -1.200000
v 0.000000 7.200000 -1.200000
vt 0.500000 1.010341
vt 0.000091 1.010340
vt 0.000091 1.010340
vt 0.500000 1.010341
vt 0.999909 0.910359
vt 0.500000 0.910359
vt 0.500000 0.910359
vt 0.999909 0.910359
vt 0.625000 0.225000
vt 0.625000 0.250000
vt 0.625000 0.250000
vt 0.625000 0.225000
vt 0.000091 0.910359
vt 0.999909 1.010341
vt 0.625000 0.250000
vt 0.625000 0.225000
vt 0.625000 0.225000
vt 0.625000 0.250000
vt 0.625000 0.525000
vt 0.625000 0.500000
vt 0.625000 0.500000
vt 0.625000 0.525000
vt 0.999909 1.010341
vt 0.625000 0.250000
vt 0.625000 0.225000
vt 0.999909 1.010341
vt 0.500000 1.010341
vt 0.000091 0.910359
vt 0.500000 0.910359
vt 0.500000 0.910359
vt 0.000091 0.910359
vt 0.625000 0.525000
vt 0.625000 0.500000
vt 0.999909 0.910359
vt 0.999909 0.910359
vt 0.000091 1.010340
vt 0.500000 0.910359
vt 0.999909 0.910359
vt 0.000091 0.910359
vt 0.000091 0.910359
vt 0.625000 0.525000
vt 0.625000 0.525000
vt 0.625000 0.225000
vt 0.625000 0.225000
vt 1.000000 0.002024
vt 1.500000 0.002024
vt 1.500000 2.002024
vt 1.000000 2.002024
vt 2.000000 0.002024
vt 2.000000 2.002024
vn 0.0000 0.0000 -1.0000
vn 0.0000 1.0000 0.0000
vn 0.0000 -1.0000 0.0000
vn -1.0000 0.0000 0.0000
vn 1.0000 0.0000 0.0000
vn 0.0000 0.0000 1.0000
usemtl CremePlastic
s off
f 16/1/1 15/2/1 8/3/1 9/4/1
f 11/5/2 12/6/2 22/7/2 20/8/2
f 4/9/3 2/10/3 3/11/3 6/12/3
f 9/4/2 8/3/2 7/13/2 12/6/2
f 10/14/2 9/4/2 12/6/2 11/5/2
f 15/15/4 17/16/4 7/17/4 8/18/4
f 13/19/5 18/20/5 10/21/5 11/22/5
f 18/23/1 16/1/1 9/4/1 10/14/1
f 6/12/3 3/11/3 1/24/3 5/25/3
f 1/26/1 3/27/1 16/1/1 18/23/1
f 4/28/6 6/29/6 14/30/6 17/31/6
f 5/32/5 1/33/5 18/20/5 13/19/5
f 2/10/4 4/9/4 17/16/4 15/15/4
f 6/29/6 5/34/6 13/35/6 14/30/6
f 3/27/1 2/36/1 15/2/1 16/1/1
f 24/37/6 19/38/6 20/8/6 22/7/6
f 23/39/6 24/37/6 22/7/6 21/40/6
f 13/19/5 11/22/5 20/41/5 19/42/5
f 12/6/2 7/13/2 21/40/2 22/7/2
f 7/17/4 17/16/4 23/43/4 21/44/4
usemtl TempleWall.002
f 17/45/3 14/46/3 24/47/3 23/48/3
f 14/46/3 13/49/3 19/50/3 24/47/3
